<svg width="851" height="122" viewBox="0 0 851 122" fill="none" xmlns="http://www.w3.org/2000/svg">
<g filter="url(#filter0_d_29_64)">
<path d="M46.204 98.2024C41.4707 98.2024 37.104 97.3358 33.104 95.6024C29.1707 93.8024 25.9374 91.2691 23.404 88.0024L32.404 77.2024C36.204 82.3358 40.5374 84.9024 45.404 84.9024C52.004 84.9024 55.304 81.0358 55.304 73.3024V40.0024H30.704V27.0024H71.404V72.4024C71.404 81.0024 69.2707 87.4691 65.004 91.8024C60.7374 96.0691 54.4707 98.2024 46.204 98.2024ZM121.306 98.2024C114.039 98.2024 107.472 96.6358 101.606 93.5024C95.8056 90.3691 91.2389 86.0691 87.9056 80.6024C84.6389 75.0691 83.0056 68.8691 83.0056 62.0024C83.0056 55.1358 84.6389 48.9691 87.9056 43.5024C91.2389 37.9691 95.8056 33.6358 101.606 30.5024C107.472 27.3691 114.039 25.8024 121.306 25.8024C128.572 25.8024 135.106 27.3691 140.906 30.5024C146.706 33.6358 151.272 37.9691 154.606 43.5024C157.939 48.9691 159.606 55.1358 159.606 62.0024C159.606 68.8691 157.939 75.0691 154.606 80.6024C151.272 86.0691 146.706 90.3691 140.906 93.5024C135.106 96.6358 128.572 98.2024 121.306 98.2024ZM121.306 84.4024C125.439 84.4024 129.172 83.4691 132.506 81.6024C135.839 79.6691 138.439 77.0024 140.306 73.6024C142.239 70.2024 143.206 66.3358 143.206 62.0024C143.206 57.6691 142.239 53.8024 140.306 50.4024C138.439 47.0024 135.839 44.3691 132.506 42.5024C129.172 40.5691 125.439 39.6024 121.306 39.6024C117.172 39.6024 113.439 40.5691 110.106 42.5024C106.772 44.3691 104.139 47.0024 102.206 50.4024C100.339 53.8024 99.4056 57.6691 99.4056 62.0024C99.4056 66.3358 100.339 70.2024 102.206 73.6024C104.139 77.0024 106.772 79.6691 110.106 81.6024C113.439 83.4691 117.172 84.4024 121.306 84.4024ZM171.781 27.0024H187.981V97.0024H171.781V27.0024ZM268.793 27.0024V97.0024H255.493L220.593 54.5024V97.0024H204.593V27.0024H217.993L252.793 69.5024V27.0024H268.793ZM328.175 40.2024H305.775V27.0024H366.775V40.2024H344.375V97.0024H328.175V40.2024ZM439.692 27.0024V97.0024H423.492V68.3024H391.692V97.0024H375.492V27.0024H391.692V54.6024H423.492V27.0024H439.692ZM510.453 84.0024V97.0024H456.253V27.0024H509.153V40.0024H472.353V55.2024H504.853V67.8024H472.353V84.0024H510.453ZM585.163 98.2024C578.03 98.2024 571.563 96.6691 565.763 93.6024C560.03 90.4691 555.497 86.1691 552.163 80.7024C548.897 75.1691 547.263 68.9358 547.263 62.0024C547.263 55.0691 548.897 48.8691 552.163 43.4024C555.497 37.8691 560.03 33.5691 565.763 30.5024C571.563 27.3691 578.063 25.8024 585.263 25.8024C591.33 25.8024 596.797 26.8691 601.663 29.0024C606.597 31.1358 610.73 34.2024 614.063 38.2024L603.663 47.8024C598.93 42.3358 593.063 39.6024 586.063 39.6024C581.73 39.6024 577.863 40.5691 574.463 42.5024C571.063 44.3691 568.397 47.0024 566.463 50.4024C564.597 53.8024 563.663 57.6691 563.663 62.0024C563.663 66.3358 564.597 70.2024 566.463 73.6024C568.397 77.0024 571.063 79.6691 574.463 81.6024C577.863 83.4691 581.73 84.4024 586.063 84.4024C593.063 84.4024 598.93 81.6358 603.663 76.1024L614.063 85.7024C610.73 89.7691 606.597 92.8691 601.663 95.0024C596.73 97.1358 591.23 98.2024 585.163 98.2024ZM625.003 27.0024H641.203V83.8024H676.303V97.0024H625.003V27.0024ZM715.576 98.2024C705.576 98.2024 697.776 95.4358 692.176 89.9024C686.643 84.3691 683.876 76.4691 683.876 66.2024V27.0024H700.076V65.6024C700.076 78.1358 705.276 84.4024 715.676 84.4024C720.743 84.4024 724.609 82.9024 727.276 79.9024C729.943 76.8358 731.276 72.0691 731.276 65.6024V27.0024H747.276V66.2024C747.276 76.4691 744.476 84.3691 738.876 89.9024C733.343 95.4358 725.576 98.2024 715.576 98.2024ZM814.684 60.6024C818.684 61.8691 821.818 64.0024 824.085 67.0024C826.351 69.9358 827.484 73.5691 827.484 77.9024C827.484 84.0358 825.085 88.7691 820.285 92.1024C815.551 95.3691 808.618 97.0024 799.484 97.0024H763.284V27.0024H797.484C806.018 27.0024 812.551 28.6358 817.085 31.9024C821.685 35.1691 823.985 39.6024 823.985 45.2024C823.985 48.6024 823.151 51.6358 821.484 54.3024C819.884 56.9691 817.618 59.0691 814.684 60.6024ZM779.384 39.2024V55.7024H795.485C799.485 55.7024 802.518 55.0024 804.584 53.6024C806.651 52.2024 807.684 50.1358 807.684 47.4024C807.684 44.6691 806.651 42.6358 804.584 41.3024C802.518 39.9024 799.485 39.2024 795.485 39.2024H779.384ZM798.284 84.8024C802.551 84.8024 805.751 84.1024 807.885 82.7024C810.085 81.3024 811.185 79.1358 811.185 76.2024C811.185 70.4024 806.885 67.5024 798.284 67.5024H779.384V84.8024H798.284Z" fill="white"/>
</g>
<path d="M47.204 100.202C42.4707 100.202 38.104 99.3358 34.104 97.6024C30.1707 95.8024 26.9374 93.2691 24.404 90.0024L33.404 79.2024C37.204 84.3358 41.5374 86.9024 46.404 86.9024C53.004 86.9024 56.304 83.0358 56.304 75.3024V42.0024H31.704V29.0024H72.404V74.4024C72.404 83.0024 70.2707 89.4691 66.004 93.8024C61.7374 98.0691 55.4707 100.202 47.204 100.202ZM122.306 100.202C115.039 100.202 108.472 98.6358 102.606 95.5024C96.8056 92.3691 92.2389 88.0691 88.9056 82.6024C85.6389 77.0691 84.0056 70.8691 84.0056 64.0024C84.0056 57.1358 85.6389 50.9691 88.9056 45.5024C92.2389 39.9691 96.8056 35.6358 102.606 32.5024C108.472 29.3691 115.039 27.8024 122.306 27.8024C129.572 27.8024 136.106 29.3691 141.906 32.5024C147.706 35.6358 152.272 39.9691 155.606 45.5024C158.939 50.9691 160.606 57.1358 160.606 64.0024C160.606 70.8691 158.939 77.0691 155.606 82.6024C152.272 88.0691 147.706 92.3691 141.906 95.5024C136.106 98.6358 129.572 100.202 122.306 100.202ZM122.306 86.4024C126.439 86.4024 130.172 85.4691 133.506 83.6024C136.839 81.6691 139.439 79.0024 141.306 75.6024C143.239 72.2024 144.206 68.3358 144.206 64.0024C144.206 59.6691 143.239 55.8024 141.306 52.4024C139.439 49.0024 136.839 46.3691 133.506 44.5024C130.172 42.5691 126.439 41.6024 122.306 41.6024C118.172 41.6024 114.439 42.5691 111.106 44.5024C107.772 46.3691 105.139 49.0024 103.206 52.4024C101.339 55.8024 100.406 59.6691 100.406 64.0024C100.406 68.3358 101.339 72.2024 103.206 75.6024C105.139 79.0024 107.772 81.6691 111.106 83.6024C114.439 85.4691 118.172 86.4024 122.306 86.4024ZM172.781 29.0024H188.981V99.0024H172.781V29.0024ZM269.793 29.0024V99.0024H256.493L221.593 56.5024V99.0024H205.593V29.0024H218.993L253.793 71.5024V29.0024H269.793ZM329.175 42.2024H306.775V29.0024H367.775V42.2024H345.375V99.0024H329.175V42.2024ZM440.692 29.0024V99.0024H424.492V70.3024H392.692V99.0024H376.492V29.0024H392.692V56.6024H424.492V29.0024H440.692ZM511.453 86.0024V99.0024H457.253V29.0024H510.153V42.0024H473.353V57.2024H505.853V69.8024H473.353V86.0024H511.453ZM586.163 100.202C579.03 100.202 572.563 98.6691 566.763 95.6024C561.03 92.4691 556.497 88.1691 553.163 82.7024C549.897 77.1691 548.263 70.9358 548.263 64.0024C548.263 57.0691 549.897 50.8691 553.163 45.4024C556.497 39.8691 561.03 35.5691 566.763 32.5024C572.563 29.3691 579.063 27.8024 586.263 27.8024C592.33 27.8024 597.797 28.8691 602.663 31.0024C607.597 33.1358 611.73 36.2024 615.063 40.2024L604.663 49.8024C599.93 44.3358 594.063 41.6024 587.063 41.6024C582.73 41.6024 578.863 42.5691 575.463 44.5024C572.063 46.3691 569.397 49.0024 567.463 52.4024C565.597 55.8024 564.663 59.6691 564.663 64.0024C564.663 68.3358 565.597 72.2024 567.463 75.6024C569.397 79.0024 572.063 81.6691 575.463 83.6024C578.863 85.4691 582.73 86.4024 587.063 86.4024C594.063 86.4024 599.93 83.6358 604.663 78.1024L615.063 87.7024C611.73 91.7691 607.597 94.8691 602.663 97.0024C597.73 99.1358 592.23 100.202 586.163 100.202ZM626.003 29.0024H642.203V85.8024H677.303V99.0024H626.003V29.0024ZM716.576 100.202C706.576 100.202 698.776 97.4358 693.176 91.9024C687.643 86.3691 684.876 78.4691 684.876 68.2024V29.0024H701.076V67.6024C701.076 80.1358 706.276 86.4024 716.676 86.4024C721.743 86.4024 725.609 84.9024 728.276 81.9024C730.943 78.8358 732.276 74.0691 732.276 67.6024V29.0024H748.276V68.2024C748.276 78.4691 745.476 86.3691 739.876 91.9024C734.343 97.4358 726.576 100.202 716.576 100.202ZM815.684 62.6024C819.684 63.8691 822.818 66.0024 825.085 69.0024C827.351 71.9358 828.484 75.5691 828.484 79.9024C828.484 86.0358 826.085 90.7691 821.285 94.1024C816.551 97.3691 809.618 99.0024 800.484 99.0024H764.284V29.0024H798.484C807.018 29.0024 813.551 30.6358 818.085 33.9024C822.685 37.1691 824.985 41.6024 824.985 47.2024C824.985 50.6024 824.151 53.6358 822.484 56.3024C820.884 58.9691 818.618 61.0691 815.684 62.6024ZM780.384 41.2024V57.7024H796.485C800.485 57.7024 803.518 57.0024 805.584 55.6024C807.651 54.2024 808.684 52.1358 808.684 49.4024C808.684 46.6691 807.651 44.6358 805.584 43.3024C803.518 41.9024 800.485 41.2024 796.485 41.2024H780.384ZM799.284 86.8024C803.551 86.8024 806.751 86.1024 808.885 84.7024C811.085 83.3024 812.185 81.1358 812.185 78.2024C812.185 72.4024 807.885 69.5024 799.284 69.5024H780.384V86.8024H799.284Z" fill="url(#paint0_linear_29_64)"/>
<path d="M34.104 97.6024L32.8557 100.33L32.8833 100.343L32.9112 100.355L34.104 97.6024ZM24.404 90.0024L22.0994 88.0819L20.5552 89.9349L22.0334 91.8409L24.404 90.0024ZM33.404 79.2024L35.8153 77.4175L33.5436 74.3488L31.0994 77.2819L33.404 79.2024ZM56.304 42.0024H59.304V39.0024H56.304V42.0024ZM31.704 42.0024H28.704V45.0024H31.704V42.0024ZM31.704 29.0024V26.0024H28.704V29.0024H31.704ZM72.404 29.0024H75.404V26.0024H72.404V29.0024ZM66.004 93.8024L68.1254 95.9238L68.1336 95.9155L68.1417 95.9073L66.004 93.8024ZM47.204 97.2024C42.8455 97.2024 38.889 96.4064 35.2969 94.8498L32.9112 100.355C37.319 102.265 42.0959 103.202 47.204 103.202V97.2024ZM35.3524 94.8745C31.8384 93.2664 28.9973 91.03 26.7747 88.164L22.0334 91.8409C24.8774 95.5082 28.503 98.3385 32.8557 100.33L35.3524 94.8745ZM26.7087 91.923L35.7087 81.123L31.0994 77.2819L22.0994 88.0819L26.7087 91.923ZM30.9928 80.9874C35.1654 86.624 40.3028 89.9024 46.404 89.9024V83.9024C42.7719 83.9024 39.2427 82.0476 35.8153 77.4175L30.9928 80.9874ZM46.404 89.9024C50.3017 89.9024 53.7312 88.7384 56.111 85.95C58.4131 83.2525 59.304 79.5255 59.304 75.3024H53.304C53.304 78.8127 52.545 80.8857 51.5471 82.0549C50.6269 83.1332 49.1063 83.9024 46.404 83.9024V89.9024ZM59.304 75.3024V42.0024H53.304V75.3024H59.304ZM56.304 39.0024H31.704V45.0024H56.304V39.0024ZM34.704 42.0024V29.0024H28.704V42.0024H34.704ZM31.704 32.0024H72.404V26.0024H31.704V32.0024ZM69.404 29.0024V74.4024H75.404V29.0024H69.404ZM69.404 74.4024C69.404 82.5439 67.386 88.123 63.8663 91.6976L68.1417 95.9073C73.1554 90.8153 75.404 83.461 75.404 74.4024H69.404ZM63.8827 91.6811C60.3608 95.203 54.9762 97.2024 47.204 97.2024V103.202C55.9652 103.202 63.1139 100.935 68.1254 95.9238L63.8827 91.6811ZM102.606 95.5024L101.18 98.1419L101.186 98.1453L101.192 98.1487L102.606 95.5024ZM88.9056 82.6024L86.3222 84.1276L86.3331 84.146L86.3442 84.1643L88.9056 82.6024ZM88.9056 45.5024L86.3358 43.9544L86.3303 43.9636L88.9056 45.5024ZM102.606 32.5024L101.192 29.8562L101.186 29.8596L101.18 29.863L102.606 32.5024ZM155.606 45.5024L153.036 47.0505L153.04 47.0574L153.044 47.0643L155.606 45.5024ZM155.606 82.6024L158.167 84.1643L158.171 84.1574L158.175 84.1505L155.606 82.6024ZM141.906 95.5024L143.332 98.1419L141.906 95.5024ZM133.506 83.6024L134.971 86.22L134.991 86.2089L135.011 86.1975L133.506 83.6024ZM141.306 75.6024L138.698 74.1195L138.687 74.139L138.676 74.1587L141.306 75.6024ZM141.306 52.4024L138.676 53.8462L138.687 53.8659L138.698 53.8853L141.306 52.4024ZM133.506 44.5024L132 47.0975L132.02 47.1089L132.04 47.12L133.506 44.5024ZM111.106 44.5024L112.571 47.12L112.591 47.1089L112.611 47.0975L111.106 44.5024ZM103.206 52.4024L100.598 50.9195L100.587 50.939L100.576 50.9587L103.206 52.4024ZM103.206 75.6024L100.576 77.0462L100.587 77.0659L100.598 77.0854L103.206 75.6024ZM111.106 83.6024L109.6 86.1975L109.62 86.2089L109.64 86.22L111.106 83.6024ZM122.306 97.2024C115.485 97.2024 109.411 95.7363 104.019 92.8562L101.192 98.1487C107.533 101.535 114.593 103.202 122.306 103.202V97.2024ZM104.032 92.863C98.6842 89.9742 94.5154 86.0401 91.467 81.0406L86.3442 84.1643C89.9624 90.0981 94.927 94.764 101.18 98.1419L104.032 92.863ZM91.489 81.0773C88.5138 76.0378 87.0056 70.3708 87.0056 64.0024H81.0056C81.0056 71.3674 82.764 78.1004 86.3222 84.1276L91.489 81.0773ZM87.0056 64.0024C87.0056 57.6337 88.5138 52.0065 91.4808 47.0413L86.3303 43.9636C82.764 49.9317 81.0056 56.6378 81.0056 64.0024H87.0056ZM91.4753 47.0505C94.5259 41.9865 98.6934 38.0257 104.032 35.1419L101.18 29.863C94.9178 33.2458 89.9519 37.9517 86.3358 43.9544L91.4753 47.0505ZM104.019 35.1487C109.411 32.2686 115.485 30.8024 122.306 30.8024V24.8024C114.593 24.8024 107.533 26.4696 101.192 29.8562L104.019 35.1487ZM122.306 30.8024C129.126 30.8024 135.161 32.2687 140.48 35.1419L143.332 29.863C137.05 26.4695 130.018 24.8024 122.306 24.8024V30.8024ZM140.48 35.1419C145.818 38.0257 149.985 41.9865 153.036 47.0505L158.175 43.9544C154.559 37.9517 149.593 33.2458 143.332 29.863L140.48 35.1419ZM153.044 47.0643C156.07 52.0263 157.606 57.6453 157.606 64.0024H163.606C163.606 56.6263 161.808 49.9119 158.167 43.9406L153.044 47.0643ZM157.606 64.0024C157.606 70.3593 156.07 76.0181 153.036 81.0544L158.175 84.1505C161.808 78.1201 163.606 71.3789 163.606 64.0024H157.606ZM153.044 81.0406C149.996 86.0401 145.827 89.9742 140.48 92.863L143.332 98.1419C149.584 94.764 154.549 90.0981 158.167 84.1643L153.044 81.0406ZM140.48 92.863C135.161 95.7361 129.126 97.2024 122.306 97.2024V103.202C130.018 103.202 137.05 101.535 143.332 98.1419L140.48 92.863ZM122.306 89.4024C126.909 89.4024 131.154 88.3577 134.971 86.22L132.04 80.9849C129.191 82.5805 125.969 83.4024 122.306 83.4024V89.4024ZM135.011 86.1975C138.82 83.9881 141.807 80.9219 143.935 77.0462L138.676 74.1587C137.07 77.0829 134.858 79.3501 132 81.0073L135.011 86.1975ZM143.913 77.0853C146.131 73.1859 147.206 68.7983 147.206 64.0024H141.206C141.206 67.8733 140.347 71.2189 138.698 74.1195L143.913 77.0853ZM147.206 64.0024C147.206 59.2066 146.131 54.8189 143.913 50.9195L138.698 53.8853C140.347 56.7859 141.206 60.1316 141.206 64.0024H147.206ZM143.935 50.9587C141.803 47.0741 138.803 44.0305 134.971 41.8849L132.04 47.12C134.875 48.7077 137.075 50.9308 138.676 53.8462L143.935 50.9587ZM135.011 41.9073C131.187 39.6895 126.928 38.6024 122.306 38.6024V44.6024C125.95 44.6024 129.158 45.4487 132 47.0975L135.011 41.9073ZM122.306 38.6024C117.683 38.6024 113.424 39.6895 109.6 41.9073L112.611 47.0975C115.454 45.4487 118.661 44.6024 122.306 44.6024V38.6024ZM109.64 41.8849C105.818 44.0253 102.795 47.0562 100.598 50.9195L105.813 53.8853C107.483 50.9487 109.727 48.7129 112.571 47.12L109.64 41.8849ZM100.576 50.9587C98.4388 54.8511 97.4056 59.2246 97.4056 64.0024H103.406C103.406 60.1136 104.239 56.7538 105.835 53.8462L100.576 50.9587ZM97.4056 64.0024C97.4056 68.7803 98.4388 73.1538 100.576 77.0462L105.835 74.1587C104.239 71.2511 103.406 67.8913 103.406 64.0024H97.4056ZM100.598 77.0854C102.79 80.9399 105.8 83.9935 109.6 86.1975L112.611 81.0073C109.744 79.3447 107.488 77.065 105.813 74.1195L100.598 77.0854ZM109.64 86.22C113.457 88.3577 117.702 89.4024 122.306 89.4024V83.4024C118.642 83.4024 115.421 82.5805 112.571 80.9849L109.64 86.22ZM172.781 29.0024V26.0024H169.781V29.0024H172.781ZM188.981 29.0024H191.981V26.0024H188.981V29.0024ZM188.981 99.0024V102.002H191.981V99.0024H188.981ZM172.781 99.0024H169.781V102.002H172.781V99.0024ZM172.781 32.0024H188.981V26.0024H172.781V32.0024ZM185.981 29.0024V99.0024H191.981V29.0024H185.981ZM188.981 96.0024H172.781V102.002H188.981V96.0024ZM175.781 99.0024V29.0024H169.781V99.0024H175.781ZM269.793 29.0024H272.793V26.0024H269.793V29.0024ZM269.793 99.0024V102.002H272.793V99.0024H269.793ZM256.493 99.0024L254.175 100.906L255.075 102.002H256.493V99.0024ZM221.593 56.5024L223.912 54.5986L218.593 48.1219V56.5024H221.593ZM221.593 99.0024V102.002H224.593V99.0024H221.593ZM205.593 99.0024H202.593V102.002H205.593V99.0024ZM205.593 29.0024V26.0024H202.593V29.0024H205.593ZM218.993 29.0024L221.314 27.1018L220.414 26.0024H218.993V29.0024ZM253.793 71.5024L251.472 73.403L256.793 79.9016V71.5024H253.793ZM253.793 29.0024V26.0024H250.793V29.0024H253.793ZM266.793 29.0024V99.0024H272.793V29.0024H266.793ZM269.793 96.0024H256.493V102.002H269.793V96.0024ZM258.812 97.0986L223.912 54.5986L219.275 58.4063L254.175 100.906L258.812 97.0986ZM218.593 56.5024V99.0024H224.593V56.5024H218.593ZM221.593 96.0024H205.593V102.002H221.593V96.0024ZM208.593 99.0024V29.0024H202.593V99.0024H208.593ZM205.593 32.0024H218.993V26.0024H205.593V32.0024ZM216.672 30.903L251.472 73.403L256.114 69.6018L221.314 27.1018L216.672 30.903ZM256.793 71.5024V29.0024H250.793V71.5024H256.793ZM253.793 32.0024H269.793V26.0024H253.793V32.0024ZM329.175 42.2024H332.175V39.2024H329.175V42.2024ZM306.775 42.2024H303.775V45.2024H306.775V42.2024ZM306.775 29.0024V26.0024H303.775V29.0024H306.775ZM367.775 29.0024H370.775V26.0024H367.775V29.0024ZM367.775 42.2024V45.2024H370.775V42.2024H367.775ZM345.375 42.2024V39.2024H342.375V42.2024H345.375ZM345.375 99.0024V102.002H348.375V99.0024H345.375ZM329.175 99.0024H326.175V102.002H329.175V99.0024ZM329.175 39.2024H306.775V45.2024H329.175V39.2024ZM309.775 42.2024V29.0024H303.775V42.2024H309.775ZM306.775 32.0024H367.775V26.0024H306.775V32.0024ZM364.775 29.0024V42.2024H370.775V29.0024H364.775ZM367.775 39.2024H345.375V45.2024H367.775V39.2024ZM342.375 42.2024V99.0024H348.375V42.2024H342.375ZM345.375 96.0024H329.175V102.002H345.375V96.0024ZM332.175 99.0024V42.2024H326.175V99.0024H332.175ZM440.692 29.0024H443.692V26.0024H440.692V29.0024ZM440.692 99.0024V102.002H443.692V99.0024H440.692ZM424.492 99.0024H421.492V102.002H424.492V99.0024ZM424.492 70.3024H427.492V67.3024H424.492V70.3024ZM392.692 70.3024V67.3024H389.692V70.3024H392.692ZM392.692 99.0024V102.002H395.692V99.0024H392.692ZM376.492 99.0024H373.492V102.002H376.492V99.0024ZM376.492 29.0024V26.0024H373.492V29.0024H376.492ZM392.692 29.0024H395.692V26.0024H392.692V29.0024ZM392.692 56.6024H389.692V59.6024H392.692V56.6024ZM424.492 56.6024V59.6024H427.492V56.6024H424.492ZM424.492 29.0024V26.0024H421.492V29.0024H424.492ZM437.692 29.0024V99.0024H443.692V29.0024H437.692ZM440.692 96.0024H424.492V102.002H440.692V96.0024ZM427.492 99.0024V70.3024H421.492V99.0024H427.492ZM424.492 67.3024H392.692V73.3024H424.492V67.3024ZM389.692 70.3024V99.0024H395.692V70.3024H389.692ZM392.692 96.0024H376.492V102.002H392.692V96.0024ZM379.492 99.0024V29.0024H373.492V99.0024H379.492ZM376.492 32.0024H392.692V26.0024H376.492V32.0024ZM389.692 29.0024V56.6024H395.692V29.0024H389.692ZM392.692 59.6024H424.492V53.6024H392.692V59.6024ZM427.492 56.6024V29.0024H421.492V56.6024H427.492ZM424.492 32.0024H440.692V26.0024H424.492V32.0024ZM511.453 86.0024H514.453V83.0024H511.453V86.0024ZM511.453 99.0024V102.002H514.453V99.0024H511.453ZM457.253 99.0024H454.253V102.002H457.253V99.0024ZM457.253 29.0024V26.0024H454.253V29.0024H457.253ZM510.153 29.0024H513.153V26.0024H510.153V29.0024ZM510.153 42.0024V45.0024H513.153V42.0024H510.153ZM473.353 42.0024V39.0024H470.353V42.0024H473.353ZM473.353 57.2024H470.353V60.2024H473.353V57.2024ZM505.853 57.2024H508.853V54.2024H505.853V57.2024ZM505.853 69.8024V72.8024H508.853V69.8024H505.853ZM473.353 69.8024V66.8024H470.353V69.8024H473.353ZM473.353 86.0024H470.353V89.0024H473.353V86.0024ZM508.453 86.0024V99.0024H514.453V86.0024H508.453ZM511.453 96.0024H457.253V102.002H511.453V96.0024ZM460.253 99.0024V29.0024H454.253V99.0024H460.253ZM457.253 32.0024H510.153V26.0024H457.253V32.0024ZM507.153 29.0024V42.0024H513.153V29.0024H507.153ZM510.153 39.0024H473.353V45.0024H510.153V39.0024ZM470.353 42.0024V57.2024H476.353V42.0024H470.353ZM473.353 60.2024H505.853V54.2024H473.353V60.2024ZM502.853 57.2024V69.8024H508.853V57.2024H502.853ZM505.853 66.8024H473.353V72.8024H505.853V66.8024ZM470.353 69.8024V86.0024H476.353V69.8024H470.353ZM473.353 89.0024H511.453V83.0024H473.353V89.0024ZM566.763 95.6024L565.325 98.235L565.343 98.2449L565.361 98.2545L566.763 95.6024ZM553.163 82.7024L550.58 84.2276L550.591 84.246L550.602 84.2643L553.163 82.7024ZM553.163 45.4024L550.594 43.8544L550.588 43.8636L553.163 45.4024ZM566.763 32.5024L568.178 35.1478L568.189 35.1419L566.763 32.5024ZM602.663 31.0024L601.459 33.75L601.466 33.753L601.473 33.756L602.663 31.0024ZM615.063 40.2024L617.098 42.4069L619.194 40.4726L617.368 38.2819L615.063 40.2024ZM604.663 49.8024L602.395 51.7662L604.423 54.1074L606.698 52.0069L604.663 49.8024ZM575.463 44.5024L576.907 47.1322L576.927 47.1214L576.946 47.1103L575.463 44.5024ZM567.463 52.4024L564.856 50.9195L564.844 50.939L564.834 50.9587L567.463 52.4024ZM567.463 75.6024L564.834 77.0462L564.844 77.0659L564.856 77.0854L567.463 75.6024ZM575.463 83.6024L573.98 86.2103L574 86.2214L574.02 86.2322L575.463 83.6024ZM604.663 78.1024L606.698 75.898L604.409 73.7848L602.384 76.1523L604.663 78.1024ZM615.063 87.7024L617.384 89.6042L619.177 87.4166L617.098 85.498L615.063 87.7024ZM602.663 97.0024L601.473 94.2489L602.663 97.0024ZM586.163 97.2024C579.475 97.2024 573.497 95.769 568.166 92.9503L565.361 98.2545C571.63 101.569 578.585 103.202 586.163 103.202V97.2024ZM568.202 92.9699C562.921 90.0835 558.778 86.1486 555.725 81.1406L550.602 84.2643C554.215 90.1896 559.14 94.8547 565.325 98.235L568.202 92.9699ZM555.747 81.1773C552.774 76.1423 551.263 70.4431 551.263 64.0024H545.263C545.263 71.4284 547.019 78.1959 550.58 84.2276L555.747 81.1773ZM551.263 64.0024C551.263 57.5613 552.774 51.9019 555.739 46.9413L550.588 43.8636C547.019 49.8363 545.263 56.5769 545.263 64.0024H551.263ZM555.733 46.9505C558.786 41.8835 562.919 37.9612 568.178 35.1478L565.348 29.8571C559.142 33.177 554.208 37.8547 550.594 43.8544L555.733 46.9505ZM568.189 35.1419C573.512 32.2666 579.514 30.8024 586.263 30.8024V24.8024C578.613 24.8024 571.615 26.4716 565.337 29.863L568.189 35.1419ZM586.263 30.8024C591.974 30.8024 597.022 31.8052 601.459 33.75L603.868 28.2548C598.571 25.9331 592.686 24.8024 586.263 24.8024V30.8024ZM601.473 33.756C605.989 35.709 609.736 38.496 612.759 42.123L617.368 38.2819C613.724 33.9089 609.205 30.5625 603.854 28.2489L601.473 33.756ZM613.029 37.998L602.629 47.598L606.698 52.0069L617.098 42.4069L613.029 37.998ZM606.931 47.8387C601.65 41.7388 594.966 38.6024 587.063 38.6024V44.6024C593.161 44.6024 598.21 46.9328 602.395 51.7662L606.931 47.8387ZM587.063 38.6024C582.268 38.6024 577.88 39.6773 573.98 41.8946L576.946 47.1103C579.847 45.461 583.193 44.6024 587.063 44.6024V38.6024ZM574.02 41.8727C570.129 44.0089 567.061 47.0412 564.856 50.9195L570.071 53.8853C571.733 50.9637 573.998 48.7293 576.907 47.1322L574.02 41.8727ZM564.834 50.9587C562.697 54.8511 561.663 59.2246 561.663 64.0024H567.663C567.663 60.1136 568.497 56.7538 570.093 53.8462L564.834 50.9587ZM561.663 64.0024C561.663 68.7803 562.697 73.1538 564.834 77.0462L570.093 74.1587C568.497 71.2511 567.663 67.8913 567.663 64.0024H561.663ZM564.856 77.0854C567.056 80.9547 570.111 84.0101 573.98 86.2103L576.946 80.9946C574.016 79.3281 571.738 77.0501 570.071 74.1195L564.856 77.0854ZM574.02 86.2322C577.912 88.3692 582.286 89.4024 587.063 89.4024V83.4024C583.175 83.4024 579.815 82.569 576.907 80.9727L574.02 86.2322ZM587.063 89.4024C594.98 89.4024 601.666 86.2215 606.943 80.0526L602.384 76.1523C598.194 81.0501 593.147 83.4024 587.063 83.4024V89.4024ZM602.629 80.3069L613.029 89.9069L617.098 85.498L606.698 75.898L602.629 80.3069ZM612.743 85.8007C609.72 89.489 605.977 92.301 601.473 94.2489L603.854 99.756C609.216 97.4372 613.74 94.0492 617.384 89.6042L612.743 85.8007ZM601.473 94.2489C596.961 96.2 591.873 97.2024 586.163 97.2024V103.202C592.587 103.202 598.499 102.072 603.854 99.756L601.473 94.2489ZM626.003 29.0024V26.0024H623.003V29.0024H626.003ZM642.203 29.0024H645.203V26.0024H642.203V29.0024ZM642.203 85.8024H639.203V88.8024H642.203V85.8024ZM677.303 85.8024H680.303V82.8024H677.303V85.8024ZM677.303 99.0024V102.002H680.303V99.0024H677.303ZM626.003 99.0024H623.003V102.002H626.003V99.0024ZM626.003 32.0024H642.203V26.0024H626.003V32.0024ZM639.203 29.0024V85.8024H645.203V29.0024H639.203ZM642.203 88.8024H677.303V82.8024H642.203V88.8024ZM674.303 85.8024V99.0024H680.303V85.8024H674.303ZM677.303 96.0024H626.003V102.002H677.303V96.0024ZM629.003 99.0024V29.0024H623.003V99.0024H629.003ZM693.176 91.9024L691.055 94.0238L691.061 94.0301L691.067 94.0364L693.176 91.9024ZM684.876 29.0024V26.0024H681.876V29.0024H684.876ZM701.076 29.0024H704.076V26.0024H701.076V29.0024ZM728.276 81.9024L730.518 83.8955L730.529 83.8833L730.54 83.871L728.276 81.9024ZM732.276 29.0024V26.0024H729.276V29.0024H732.276ZM748.276 29.0024H751.276V26.0024H748.276V29.0024ZM739.876 91.9024L737.767 89.7685L737.761 89.7748L737.755 89.7811L739.876 91.9024ZM716.576 97.2024C707.142 97.2024 700.182 94.6074 695.284 89.7685L691.067 94.0364C697.37 100.264 706.01 103.202 716.576 103.202V97.2024ZM695.297 89.7811C690.486 84.9697 687.876 77.9314 687.876 68.2024H681.876C681.876 79.0068 684.799 87.7685 691.055 94.0238L695.297 89.7811ZM687.876 68.2024V29.0024H681.876V68.2024H687.876ZM684.876 32.0024H701.076V26.0024H684.876V32.0024ZM698.076 29.0024V67.6024H704.076V29.0024H698.076ZM698.076 67.6024C698.076 74.2094 699.435 79.7229 702.667 83.6182C705.988 87.6206 710.851 89.4024 716.676 89.4024V83.4024C712.101 83.4024 709.163 82.0509 707.285 79.7867C705.317 77.4153 704.076 73.5288 704.076 67.6024H698.076ZM716.676 89.4024C722.358 89.4024 727.139 87.6965 730.518 83.8955L726.034 79.9093C724.079 82.1084 721.127 83.4024 716.676 83.4024V89.4024ZM730.54 83.871C733.892 80.0156 735.276 74.3882 735.276 67.6024H729.276C729.276 73.7501 727.993 77.656 726.012 79.9339L730.54 83.871ZM735.276 67.6024V29.0024H729.276V67.6024H735.276ZM732.276 32.0024H748.276V26.0024H732.276V32.0024ZM745.276 29.0024V68.2024H751.276V29.0024H745.276ZM745.276 68.2024C745.276 77.9216 742.638 84.9554 737.767 89.7685L741.984 94.0364C748.313 87.7828 751.276 79.0166 751.276 68.2024H745.276ZM737.755 89.7811C732.929 94.6068 726.012 97.2024 716.576 97.2024V103.202C727.14 103.202 735.756 100.265 741.997 94.0238L737.755 89.7811ZM815.685 62.6024L814.295 59.9438L807.903 63.285L814.779 65.4625L815.685 62.6024ZM825.084 69.0024L822.691 70.8109L822.701 70.8239L822.711 70.8368L825.084 69.0024ZM821.284 94.1024L822.989 96.5715L822.996 96.5666L821.284 94.1024ZM764.284 99.0024H761.284V102.002H764.284V99.0024ZM764.284 29.0024V26.0024H761.284V29.0024H764.284ZM818.084 33.9024L816.331 36.3364L816.339 36.3424L816.347 36.3484L818.084 33.9024ZM822.484 56.3024L819.94 54.7124L819.926 54.7356L819.912 54.759L822.484 56.3024ZM780.385 41.2024V38.2024H777.385V41.2024H780.385ZM780.385 57.7024H777.385V60.7024H780.385V57.7024ZM805.584 43.3024L803.902 45.7862L803.93 45.8051L803.958 45.8233L805.584 43.3024ZM808.885 84.7024L807.274 82.1715L807.256 82.1828L807.239 82.1943L808.885 84.7024ZM780.385 69.5024V66.5024H777.385V69.5024H780.385ZM780.385 86.8024H777.385V89.8024H780.385V86.8024ZM814.779 65.4625C818.258 66.5641 820.842 68.3641 822.691 70.8109L827.478 67.1939C824.794 63.6408 821.111 61.1741 816.59 59.7424L814.779 65.4625ZM822.711 70.8368C824.505 73.1594 825.484 76.1163 825.484 79.9024H831.484C831.484 75.0219 830.197 70.7122 827.458 67.1681L822.711 70.8368ZM825.484 79.9024C825.484 85.1106 823.52 88.8978 819.573 91.6383L822.996 96.5666C828.649 92.6404 831.484 86.9609 831.484 79.9024H825.484ZM819.581 91.6334C815.564 94.4053 809.339 96.0024 800.484 96.0024V102.002C809.897 102.002 817.538 100.333 822.989 96.5715L819.581 91.6334ZM800.484 96.0024H764.284V102.002H800.484V96.0024ZM767.284 99.0024V29.0024H761.284V99.0024H767.284ZM764.284 32.0024H798.484V26.0024H764.284V32.0024ZM798.484 32.0024C806.7 32.0024 812.513 33.5856 816.331 36.3364L819.838 31.4685C814.589 27.6859 807.336 26.0024 798.484 26.0024V32.0024ZM816.347 36.3484C820.162 39.0575 821.984 42.5828 821.984 47.2024H827.984C827.984 40.622 825.207 35.2807 819.822 31.4565L816.347 36.3484ZM821.984 47.2024C821.984 50.0876 821.285 52.5613 819.94 54.7124L825.029 57.8924C827.017 54.7103 827.984 51.1172 827.984 47.2024H821.984ZM819.912 54.759C818.615 56.9214 816.772 58.6491 814.295 59.9438L817.074 65.2611C820.464 63.4891 823.154 61.0169 825.057 57.8459L819.912 54.759ZM777.385 41.2024V57.7024H783.385V41.2024H777.385ZM780.385 60.7024H796.484V54.7024H780.385V60.7024ZM796.484 60.7024C800.754 60.7024 804.487 59.9697 807.267 58.0862L803.902 53.1187C802.549 54.0352 800.215 54.7024 796.484 54.7024V60.7024ZM807.267 58.0862C810.246 56.0684 811.685 53.0196 811.685 49.4024H805.685C805.685 51.2519 805.057 52.3365 803.902 53.1187L807.267 58.0862ZM811.685 49.4024C811.685 45.7844 810.241 42.7364 807.211 40.7815L803.958 45.8233C805.061 46.5351 805.685 47.5539 805.685 49.4024H811.685ZM807.267 40.8187C804.487 38.9352 800.754 38.2024 796.484 38.2024V44.2024C800.215 44.2024 802.549 44.8697 803.902 45.7862L807.267 40.8187ZM796.484 38.2024H780.385V44.2024H796.484V38.2024ZM799.284 89.8024C803.784 89.8024 807.679 89.0816 810.53 87.2106L807.239 82.1943C805.823 83.1233 803.318 83.8024 799.284 83.8024V89.8024ZM810.495 87.2334C813.681 85.2061 815.185 82.01 815.185 78.2024H809.185C809.185 80.2615 808.488 81.3988 807.274 82.1715L810.495 87.2334ZM815.185 78.2024C815.185 74.4433 813.722 71.271 810.637 69.1902C807.762 67.2513 803.828 66.5024 799.284 66.5024V72.5024C803.341 72.5024 805.857 73.2036 807.282 74.1647C808.497 74.9839 809.185 76.1616 809.185 78.2024H815.185ZM799.284 66.5024H780.385V72.5024H799.284V66.5024ZM777.385 69.5024V86.8024H783.385V69.5024H777.385ZM780.385 89.8024H799.284V83.8024H780.385V89.8024Z" fill="white"/>
<defs>
<filter id="filter0_d_29_64" x="0.404053" y="2.80249" width="850.08" height="118.4" filterUnits="userSpaceOnUse" color-interpolation-filters="sRGB">
<feFlood flood-opacity="0" result="BackgroundImageFix"/>
<feColorMatrix in="SourceAlpha" type="matrix" values="0 0 0 0 0 0 0 0 0 0 0 0 0 0 0 0 0 0 127 0" result="hardAlpha"/>
<feOffset/>
<feGaussianBlur stdDeviation="11.5"/>
<feComposite in2="hardAlpha" operator="out"/>
<feColorMatrix type="matrix" values="0 0 0 0 0.32 0 0 0 0 1 0 0 0 0 0 0 0 0 1 0"/>
<feBlend mode="normal" in2="BackgroundImageFix" result="effect1_dropShadow_29_64"/>
<feBlend mode="normal" in="SourceGraphic" in2="effect1_dropShadow_29_64" result="shape"/>
</filter>
<linearGradient id="paint0_linear_29_64" x1="395.004" y1="-49.9976" x2="408.504" y2="158.002" gradientUnits="userSpaceOnUse">
<stop offset="0.281276" stop-color="#001AFF"/>
<stop offset="0.73168" stop-color="#E70000"/>
<stop offset="0.9999" stop-color="#F0010F" stop-opacity="0.0572917"/>
</linearGradient>
</defs>
</svg>
