<svg xmlns="http://www.w3.org/2000/svg" width="80" height="80" fill="none" viewBox="0 0 80 80"><path fill="#ffffff" d="M40 9.6C23.22 9.6 9.6 23.22 9.6 40c0 16.635 13.386 30.165 29.967 30.397 6.478.09 12.419-4.875 12.419-11.425 0-2.379-.431-3.86-.831-5.117-.4-1.258-.755-2.266-.755-4.055 0-3.655 2.945-6.6 6.6-6.6h7c3.531 0 6.4-2.887 6.4-6.416C70.4 21.925 57.181 9.6 40 9.6zm0 1.6c16.42 0 28.8 11.674 28.8 25.585A4.795 4.795 0 0164 41.6h-7c-4.52 0-8.2 3.68-8.2 8.2 0 2.011.437 3.304.83 4.54.393 1.234.756 2.438.756 4.632 0 5.574-5.15 9.904-10.797 9.825C23.865 68.577 11.2 55.777 11.2 40c0-15.916 12.884-28.8 28.8-28.8zM36 16a5.606 5.606 0 00-5.6 5.6c0 3.088 2.512 5.6 5.6 5.6a5.586 5.586 0 004.036-1.723.4.4 0 10-.577-.553A4.777 4.777 0 0136 26.4a4.794 4.794 0 01-4.8-4.8c0-2.656 2.144-4.8 4.8-4.8.115 0 .237.01.372.019a.4.4 0 10.056-.799c-.13-.01-.272-.02-.428-.02zm1.998.398a.4.4 0 00-.153.77 4.816 4.816 0 012.196 1.848.4.4 0 10.673-.431 5.609 5.609 0 00-2.56-2.154.402.402 0 00-.156-.033zM51.2 19.2a5.606 5.606 0 00-5.6 5.6c0 3.088 2.512 5.6 5.6 5.6a5.596 5.596 0 004.714-2.584.4.4 0 10-.673-.431A4.788 4.788 0 0151.2 29.6a4.794 4.794 0 01-4.8-4.8c0-2.656 2.143-4.8 4.8-4.8a4.78 4.78 0 011.844.369.4.4 0 10.31-.738 5.593 5.593 0 00-2.155-.43zm-10.166.795a.4.4 0 00-.368.497c.057.24.096.486.115.738a.4.4 0 10.797-.06 5.56 5.56 0 00-.134-.862.4.4 0 00-.41-.313zm13.754.653a.4.4 0 00-.266.693 4.82 4.82 0 011.11 1.614.4.4 0 10.737-.31 5.605 5.605 0 00-1.29-1.88.4.4 0 00-.291-.117zm1.597 3.346a.4.4 0 00-.404.434c.01.135.02.257.02.372 0 .116-.01.238-.02.369a.4.4 0 10.797.062c.01-.134.022-.277.022-.43 0-.157-.01-.298-.02-.429a.4.4 0 00-.395-.378zM24 25.6a5.606 5.606 0 00-5.6 5.6c0 3.088 2.512 5.6 5.6 5.6 3.088 0 5.6-2.512 5.6-5.6 0-3.088-2.512-5.6-5.6-5.6zm0 .8c2.656 0 4.8 2.144 4.8 4.8 0 2.656-2.144 4.8-4.8 4.8a4.794 4.794 0 01-4.8-4.8c0-2.656 2.144-4.8 4.8-4.8zm-.8 15.2a5.606 5.606 0 00-5.6 5.6c0 3.088 2.512 5.6 5.6 5.6a5.596 5.596 0 004.714-2.584.4.4 0 10-.673-.431A4.788 4.788 0 0123.2 52a4.794 4.794 0 01-4.8-4.8c0-2.656 2.143-4.8 4.8-4.8a4.8 4.8 0 011.107.135.4.4 0 10.184-.779A5.606 5.606 0 0023.2 41.6zm2.79.82a.4.4 0 00-.205.74 4.815 4.815 0 011.846 2.195.4.4 0 10.738-.31 5.608 5.608 0 00-2.153-2.559.4.4 0 00-.227-.066zm2.395 3.974a.402.402 0 00-.404.434c.01.135.02.257.02.372 0 .116-.01.237-.02.369a.4.4 0 10.797.062c.01-.134.022-.277.022-.43 0-.157-.01-.298-.02-.429a.4.4 0 00-.396-.378zM38 51.2c-3.304 0-6 2.696-6 6s2.696 6 6 6 6-2.696 6-6-2.696-6-6-6zm0 1.6c2.44 0 4.4 1.96 4.4 4.4 0 2.44-1.96 4.4-4.4 4.4-2.44 0-4.4-1.96-4.4-4.4 0-2.44 1.96-4.4 4.4-4.4z"></path><path fill="#fff" d="M40 9.6C23.22 9.6 9.6 23.22 9.6 40c0 16.635 13.386 30.165 29.967 30.397 6.478.09 12.419-4.875 12.419-11.425 0-2.379-.431-3.86-.831-5.117-.4-1.258-.755-2.266-.755-4.055 0-3.655 2.945-6.6 6.6-6.6h7c3.531 0 6.4-2.887 6.4-6.416C70.4 21.925 57.181 9.6 40 9.6zm0 1.6c16.42 0 28.8 11.674 28.8 25.585A4.795 4.795 0 0164 41.6h-7c-4.52 0-8.2 3.68-8.2 8.2 0 2.011.437 3.304.83 4.54.393 1.234.756 2.438.756 4.632 0 5.574-5.15 9.904-10.797 9.825C23.865 68.577 11.2 55.777 11.2 40c0-15.916 12.884-28.8 28.8-28.8zM36 16a5.606 5.606 0 00-5.6 5.6c0 3.088 2.512 5.6 5.6 5.6a5.586 5.586 0 004.036-1.723.4.4 0 10-.577-.553A4.777 4.777 0 0136 26.4a4.794 4.794 0 01-4.8-4.8c0-2.656 2.144-4.8 4.8-4.8.115 0 .237.01.372.019a.4.4 0 10.056-.799c-.13-.01-.272-.02-.428-.02zm1.998.398a.4.4 0 00-.153.77 4.816 4.816 0 012.196 1.848.4.4 0 10.673-.431 5.609 5.609 0 00-2.56-2.154.402.402 0 00-.156-.033zM51.2 19.2a5.606 5.606 0 00-5.6 5.6c0 3.088 2.512 5.6 5.6 5.6a5.596 5.596 0 004.714-2.584.4.4 0 10-.673-.431A4.788 4.788 0 0151.2 29.6a4.794 4.794 0 01-4.8-4.8c0-2.656 2.143-4.8 4.8-4.8a4.78 4.78 0 011.844.369.4.4 0 10.31-.738 5.593 5.593 0 00-2.155-.43zm-10.166.795a.4.4 0 00-.368.497c.057.24.096.486.115.738a.4.4 0 10.797-.06 5.56 5.56 0 00-.134-.862.4.4 0 00-.41-.313zm13.754.653a.4.4 0 00-.266.693 4.82 4.82 0 011.11 1.614.4.4 0 10.737-.31 5.605 5.605 0 00-1.29-1.88.4.4 0 00-.291-.117zm1.597 3.346a.4.4 0 00-.404.434c.01.135.02.257.02.372 0 .116-.01.238-.02.369a.4.4 0 10.797.062c.01-.134.022-.277.022-.43 0-.157-.01-.298-.02-.429a.4.4 0 00-.395-.378zM24 25.6a5.606 5.606 0 00-5.6 5.6c0 3.088 2.512 5.6 5.6 5.6 3.088 0 5.6-2.512 5.6-5.6 0-3.088-2.512-5.6-5.6-5.6zm0 .8c2.656 0 4.8 2.144 4.8 4.8 0 2.656-2.144 4.8-4.8 4.8a4.794 4.794 0 01-4.8-4.8c0-2.656 2.144-4.8 4.8-4.8zm-.8 15.2a5.606 5.606 0 00-5.6 5.6c0 3.088 2.512 5.6 5.6 5.6a5.596 5.596 0 004.714-2.584.4.4 0 10-.673-.431A4.788 4.788 0 0123.2 52a4.794 4.794 0 01-4.8-4.8c0-2.656 2.143-4.8 4.8-4.8a4.8 4.8 0 011.107.135.4.4 0 10.184-.779A5.606 5.606 0 0023.2 41.6zm2.79.82a.4.4 0 00-.205.74 4.815 4.815 0 011.846 2.195.4.4 0 10.738-.31 5.608 5.608 0 00-2.153-2.559.4.4 0 00-.227-.066zm2.395 3.974a.402.402 0 00-.404.434c.01.135.02.257.02.372 0 .116-.01.237-.02.369a.4.4 0 10.797.062c.01-.134.022-.277.022-.43 0-.157-.01-.298-.02-.429a.4.4 0 00-.396-.378zM38 51.2c-3.304 0-6 2.696-6 6s2.696 6 6 6 6-2.696 6-6-2.696-6-6-6zm0 1.6c2.44 0 4.4 1.96 4.4 4.4 0 2.44-1.96 4.4-4.4 4.4-2.44 0-4.4-1.96-4.4-4.4 0-2.44 1.96-4.4 4.4-4.4z"></path></svg>