<svg xmlns="http://www.w3.org/2000/svg" width="80" height="80" fill="none" viewBox="0 0 80 80"><path fill="#FFFFFF" d="M20 11.2a5.6 5.6 0 00-5.6 5.6v46.4a5.6 5.6 0 005.6 5.6h22.678A4.798 4.798 0 0047.2 72H64a4.8 4.8 0 004.8-4.8V41.6h.4c.662 0 1.2-.538 1.2-1.2v-4c0-.662-.538-1.2-1.2-1.2h-.4v-2.4A4.8 4.8 0 0064 28h-7.2v-3.2h.4c.662 0 1.2-.538 1.2-1.2v-4c0-.662-.538-1.2-1.2-1.2h-.4v-1.6a5.6 5.6 0 00-5.6-5.6H20zm0 1.6h31.2a4 4 0 014 4V28h-8a4.8 4.8 0 00-4.8 4.8v24.8H19.2v-4.4a.4.4 0 00-.8 0V58c0 .22.18.4.4.4h23.6v8.8H20a4 4 0 01-4-4V16.8a4 4 0 014-4zm12.402 2.4a.4.4 0 000 .8H38.8a.4.4 0 000-.8h-6.398zM18.8 18.4a.4.4 0 00-.4.4v26.4a.4.4 0 00.8 0v-26h30a.4.4 0 000-.8H18.8zm33.6 0a.4.4 0 00-.4.4V22a.4.4 0 00.8 0v-3.2a.4.4 0 00-.4-.4zm4.4.8h.4c.22 0 .4.18.4.4v4a.4.4 0 01-.4.4h-.4v-4.8zm-4.4 4a.4.4 0 00-.4.4v.8a.4.4 0 00.8 0v-.8a.4.4 0 00-.4-.4zm-5.2 6.4H64a3.2 3.2 0 013.2 3.2v34.4a3.2 3.2 0 01-3.2 3.2H47.2a3.2 3.2 0 01-3.2-3.2V32.8a3.2 3.2 0 013.2-3.2zm6.8 1.6a.4.4 0 000 .8h3.199a.4.4 0 000-.8H54zm-8 2.4a.4.4 0 00-.4.4v11.2a.4.4 0 00.8 0V34.4H62a.4.4 0 000-.8H46zm19.2 0a.4.4 0 00-.4.4v3.2a.4.4 0 00.8 0V34a.4.4 0 00-.4-.4zm3.6 2.4h.4c.22 0 .4.18.4.4v4a.4.4 0 01-.4.4h-.4V36zm-19.6.8c-.662 0-1.2.538-1.2 1.2v1.6c0 .661.538 1.2 1.2 1.2h1.6c.662 0 1.2-.538 1.2-1.2V38c0-.662-.538-1.2-1.2-1.2h-1.6zm5.6 0c-.662 0-1.2.538-1.2 1.2v1.6c0 .661.538 1.2 1.2 1.2h1.6c.662 0 1.2-.538 1.2-1.2V38c0-.662-.538-1.2-1.2-1.2h-1.6zm5.6 0c-.662 0-1.2.538-1.2 1.2v1.6c0 .661.538 1.2 1.2 1.2H62c.662 0 1.2-.538 1.2-1.2V38c0-.662-.538-1.2-1.2-1.2h-1.6zm-11.2.8h1.6c.22 0 .4.18.4.4v1.6a.4.4 0 01-.4.4h-1.6a.4.4 0 01-.4-.4V38c0-.22.18-.4.4-.4zm5.6 0h1.6c.22 0 .4.18.4.4v1.6a.4.4 0 01-.4.4h-1.6a.4.4 0 01-.4-.4V38c0-.22.18-.4.4-.4zm5.6 0H62c.22 0 .4.18.4.4v1.6a.4.4 0 01-.4.4h-1.6a.4.4 0 01-.4-.4V38c0-.22.18-.4.4-.4zm4.8.8a.4.4 0 00-.4.4v.8a.4.4 0 00.8 0v-.8a.4.4 0 00-.4-.4zm-16 4c-.662 0-1.2.538-1.2 1.2v1.6c0 .661.538 1.2 1.2 1.2h1.6c.662 0 1.2-.538 1.2-1.2v-1.6c0-.662-.538-1.2-1.2-1.2h-1.6zm5.6 0c-.662 0-1.2.538-1.2 1.2v1.6c0 .661.538 1.2 1.2 1.2h1.6c.662 0 1.2-.538 1.2-1.2v-1.6c0-.662-.538-1.2-1.2-1.2h-1.6zm5.6 0c-.662 0-1.2.538-1.2 1.2v1.6c0 .661.538 1.2 1.2 1.2H62c.662 0 1.2-.538 1.2-1.2v-1.6c0-.662-.538-1.2-1.2-1.2h-1.6zm-11.2.8h1.6c.22 0 .4.18.4.4v1.6a.4.4 0 01-.4.4h-1.6a.4.4 0 01-.4-.4v-1.6c0-.22.18-.4.4-.4zm5.6 0h1.6c.22 0 .4.18.4.4v1.6a.4.4 0 01-.4.4h-1.6a.4.4 0 01-.4-.4v-1.6c0-.22.18-.4.4-.4zm5.6 0H62c.22 0 .4.18.4.4v1.6a.4.4 0 01-.4.4h-1.6a.4.4 0 01-.4-.4v-1.6c0-.22.18-.4.4-.4zm4.8 0a.4.4 0 00-.4.4v18.8H46.4V51.6a.4.4 0 00-.8 0v11.2c0 .22.18.4.4.4h19.2a.4.4 0 00.4-.4V43.6a.4.4 0 00-.4-.4zm-46.4 6.4a.4.4 0 00-.4.4v1.6a.4.4 0 00.8 0V50a.4.4 0 00-.4-.4zM35.6 60a2.803 2.803 0 00-2.8 2.8c0 1.544 1.256 2.8 2.8 2.8 1.544 0 2.8-1.256 2.8-2.8 0-1.544-1.256-2.8-2.8-2.8zm0 .8c1.103 0 2 .898 2 2 0 1.102-.897 2-2 2s-2-.898-2-2c0-1.102.897-2 2-2zm20 4c-1.103 0-2 .897-2 2s.897 2 2 2 2-.897 2-2-.897-2-2-2zm0 .8c.662 0 1.2.538 1.2 1.2 0 .662-.538 1.2-1.2 1.2-.662 0-1.2-.538-1.2-1.2 0-.662.538-1.2 1.2-1.2z"></path><path fill="#fff" d="M20 11.2a5.6 5.6 0 00-5.6 5.6v46.4a5.6 5.6 0 005.6 5.6h22.678A4.798 4.798 0 0047.2 72H64a4.8 4.8 0 004.8-4.8V41.6h.4c.662 0 1.2-.538 1.2-1.2v-4c0-.662-.538-1.2-1.2-1.2h-.4v-2.4A4.8 4.8 0 0064 28h-7.2v-3.2h.4c.662 0 1.2-.538 1.2-1.2v-4c0-.662-.538-1.2-1.2-1.2h-.4v-1.6a5.6 5.6 0 00-5.6-5.6H20zm0 1.6h31.2a4 4 0 014 4V28h-8a4.8 4.8 0 00-4.8 4.8v24.8H19.2v-4.4a.4.4 0 00-.8 0V58c0 .22.18.4.4.4h23.6v8.8H20a4 4 0 01-4-4V16.8a4 4 0 014-4zm12.402 2.4a.4.4 0 000 .8H38.8a.4.4 0 000-.8h-6.398zM18.8 18.4a.4.4 0 00-.4.4v26.4a.4.4 0 00.8 0v-26h30a.4.4 0 000-.8H18.8zm33.6 0a.4.4 0 00-.4.4V22a.4.4 0 00.8 0v-3.2a.4.4 0 00-.4-.4zm4.4.8h.4c.22 0 .4.18.4.4v4a.4.4 0 01-.4.4h-.4v-4.8zm-4.4 4a.4.4 0 00-.4.4v.8a.4.4 0 00.8 0v-.8a.4.4 0 00-.4-.4zm-5.2 6.4H64a3.2 3.2 0 013.2 3.2v34.4a3.2 3.2 0 01-3.2 3.2H47.2a3.2 3.2 0 01-3.2-3.2V32.8a3.2 3.2 0 013.2-3.2zm6.8 1.6a.4.4 0 000 .8h3.199a.4.4 0 000-.8H54zm-8 2.4a.4.4 0 00-.4.4v11.2a.4.4 0 00.8 0V34.4H62a.4.4 0 000-.8H46zm19.2 0a.4.4 0 00-.4.4v3.2a.4.4 0 00.8 0V34a.4.4 0 00-.4-.4zm3.6 2.4h.4c.22 0 .4.18.4.4v4a.4.4 0 01-.4.4h-.4V36zm-19.6.8c-.662 0-1.2.538-1.2 1.2v1.6c0 .661.538 1.2 1.2 1.2h1.6c.662 0 1.2-.538 1.2-1.2V38c0-.662-.538-1.2-1.2-1.2h-1.6zm5.6 0c-.662 0-1.2.538-1.2 1.2v1.6c0 .661.538 1.2 1.2 1.2h1.6c.662 0 1.2-.538 1.2-1.2V38c0-.662-.538-1.2-1.2-1.2h-1.6zm5.6 0c-.662 0-1.2.538-1.2 1.2v1.6c0 .661.538 1.2 1.2 1.2H62c.662 0 1.2-.538 1.2-1.2V38c0-.662-.538-1.2-1.2-1.2h-1.6zm-11.2.8h1.6c.22 0 .4.18.4.4v1.6a.4.4 0 01-.4.4h-1.6a.4.4 0 01-.4-.4V38c0-.22.18-.4.4-.4zm5.6 0h1.6c.22 0 .4.18.4.4v1.6a.4.4 0 01-.4.4h-1.6a.4.4 0 01-.4-.4V38c0-.22.18-.4.4-.4zm5.6 0H62c.22 0 .4.18.4.4v1.6a.4.4 0 01-.4.4h-1.6a.4.4 0 01-.4-.4V38c0-.22.18-.4.4-.4zm4.8.8a.4.4 0 00-.4.4v.8a.4.4 0 00.8 0v-.8a.4.4 0 00-.4-.4zm-16 4c-.662 0-1.2.538-1.2 1.2v1.6c0 .661.538 1.2 1.2 1.2h1.6c.662 0 1.2-.538 1.2-1.2v-1.6c0-.662-.538-1.2-1.2-1.2h-1.6zm5.6 0c-.662 0-1.2.538-1.2 1.2v1.6c0 .661.538 1.2 1.2 1.2h1.6c.662 0 1.2-.538 1.2-1.2v-1.6c0-.662-.538-1.2-1.2-1.2h-1.6zm5.6 0c-.662 0-1.2.538-1.2 1.2v1.6c0 .661.538 1.2 1.2 1.2H62c.662 0 1.2-.538 1.2-1.2v-1.6c0-.662-.538-1.2-1.2-1.2h-1.6zm-11.2.8h1.6c.22 0 .4.18.4.4v1.6a.4.4 0 01-.4.4h-1.6a.4.4 0 01-.4-.4v-1.6c0-.22.18-.4.4-.4zm5.6 0h1.6c.22 0 .4.18.4.4v1.6a.4.4 0 01-.4.4h-1.6a.4.4 0 01-.4-.4v-1.6c0-.22.18-.4.4-.4zm5.6 0H62c.22 0 .4.18.4.4v1.6a.4.4 0 01-.4.4h-1.6a.4.4 0 01-.4-.4v-1.6c0-.22.18-.4.4-.4zm4.8 0a.4.4 0 00-.4.4v18.8H46.4V51.6a.4.4 0 00-.8 0v11.2c0 .22.18.4.4.4h19.2a.4.4 0 00.4-.4V43.6a.4.4 0 00-.4-.4zm-46.4 6.4a.4.4 0 00-.4.4v1.6a.4.4 0 00.8 0V50a.4.4 0 00-.4-.4zM35.6 60a2.803 2.803 0 00-2.8 2.8c0 1.544 1.256 2.8 2.8 2.8 1.544 0 2.8-1.256 2.8-2.8 0-1.544-1.256-2.8-2.8-2.8zm0 .8c1.103 0 2 .898 2 2 0 1.102-.897 2-2 2s-2-.898-2-2c0-1.102.897-2 2-2zm20 4c-1.103 0-2 .897-2 2s.897 2 2 2 2-.897 2-2-.897-2-2-2zm0 .8c.662 0 1.2.538 1.2 1.2 0 .662-.538 1.2-1.2 1.2-.662 0-1.2-.538-1.2-1.2 0-.662.538-1.2 1.2-1.2z"></path></svg>