<svg xmlns="http://www.w3.org/2000/svg" width="80" height="80" fill="none" viewBox="0 0 80 80"><path fill="#fff" d="M37.2 10.4c-13.466 0-24.4 10.934-24.4 24.4 0 1.268.102 2.51.287 3.722a.802.802 0 00.082.245c.56 3.43 1.798 6.634 3.636 9.425h.001c2.557 3.882 3.994 8.378 3.994 13.006V69.6a.798.798 0 001.109.75.8.8 0 00.491-.75v-8.402c0-4.96-1.54-9.76-4.258-13.886a22.61 22.61 0 01-3.458-9.032.796.796 0 00-.023-.105A22.864 22.864 0 0114.4 34.8C14.4 22.199 24.599 12 37.2 12c11.53 0 21.042 8.547 22.578 19.645a4.025 4.025 0 00.469 1.417l5.206 8.761a1.03 1.03 0 01-.473 1.488l-5.305 2.358a.8.8 0 00-.475.73v6.4c0 3.987-3.214 7.2-7.2 7.2H40.4a.398.398 0 00-.375.555.403.403 0 00.375.246h6v8.8a.798.798 0 001.109.75.8.8 0 00.491-.75v-8h4c4.85 0 8.8-3.95 8.8-8.8v-5.88l4.83-2.147c1.434-.638 2-2.417 1.198-3.767l-5.192-8.739v-.002a2.427 2.427 0 01-.272-.84C59.72 19.547 49.521 10.4 37.2 10.4zm-1.997 10.63a.8.8 0 00-.128.012 13.532 13.532 0 00-5.128 2.134.799.799 0 00-.169 1.168 1.58 1.58 0 01-.097 2.136 1.58 1.58 0 01-2.137.096.8.8 0 00-1.169.168 13.508 13.508 0 00-2.136 5.13.8.8 0 00.71.945c.82.078 1.451.74 1.451 1.58a1.58 1.58 0 01-1.445 1.582.798.798 0 00-.71.944 13.544 13.544 0 002.125 5.134.8.8 0 001.17.166 1.58 1.58 0 012.14.094c.592.591.616 1.504.097 2.137a.8.8 0 00.168 1.167 13.543 13.543 0 005.13 2.133.8.8 0 00.944-.71A1.58 1.58 0 0137.6 45.6a1.58 1.58 0 011.581 1.445.8.8 0 00.944.71 13.544 13.544 0 005.134-2.125.8.8 0 00.166-1.17 1.58 1.58 0 01.094-2.14 1.581 1.581 0 012.137-.097.8.8 0 001.168-.168 13.543 13.543 0 002.132-5.13.799.799 0 00-.71-.944A1.581 1.581 0 0148.8 34.4a1.58 1.58 0 011.445-1.581.8.8 0 00.71-.944 13.544 13.544 0 00-2.125-5.134.8.8 0 00-1.169-.166 1.58 1.58 0 01-2.14-.094 1.581 1.581 0 01-.098-2.137.8.8 0 00-.168-1.168 13.543 13.543 0 00-5.13-2.132.799.799 0 00-.944.709A1.58 1.58 0 0137.6 23.2a1.578 1.578 0 01-1.58-1.447.8.8 0 00-.817-.723zm-.512 1.79c.483 1.15 1.588 1.98 2.909 1.98 1.322 0 2.426-.83 2.91-1.98 1.15.29 2.228.742 3.221 1.34-.47 1.153-.275 2.519.658 3.452.934.935 2.301 1.128 3.456.655a11.876 11.876 0 011.335 3.225c-1.15.483-1.98 1.587-1.98 2.908s.83 2.426 1.98 2.91a11.875 11.875 0 01-1.34 3.221c-1.154-.47-2.519-.276-3.453.658-.935.935-1.128 2.302-.654 3.458a11.881 11.881 0 01-3.225 1.333C40.025 44.83 38.92 44 37.6 44s-2.426.83-2.91 1.98a11.872 11.872 0 01-3.221-1.34c.47-1.154.275-2.519-.658-3.453-.934-.934-2.3-1.127-3.456-.654a11.876 11.876 0 01-1.335-3.225C27.17 36.825 28 35.72 28 34.4c0-1.324-.832-2.429-1.984-2.911.29-1.15.744-2.227 1.342-3.22 1.154.47 2.521.275 3.454-.658.934-.933 1.128-2.297.658-3.452a11.865 11.865 0 013.22-1.339zm2.482 5.2c-.283.019-.568.05-.853.108a.401.401 0 00.16.784c.237-.048.487-.076.747-.093a.4.4 0 00-.053-.799zm1.627.1a.4.4 0 00-.08.792c.236.048.436.175.66.252l-.649 2.239A3.401 3.401 0 0037.6 31.2c-1 0-1.852.404-2.398 1.019-.09.1-.16.212-.235.322l-2.315-.67c.525-1.024 1.32-1.885 2.335-2.423a.4.4 0 10-.375-.706c-1.247.66-2.199 1.748-2.787 3.038a.4.4 0 00-.173.393c-.264.7-.452 1.436-.452 2.227 0 .197.118.353.136.545a.4.4 0 00.153.619c.122.623.165 1.28.453 1.823a.401.401 0 00.744-.065.4.4 0 00-.038-.31c-.246-.465-.278-1.026-.386-1.556l2.182-.539a3.19 3.19 0 00.758 1.664c.488.55 1.229.913 2.093.988l.585 2.364c-.1.005-.179.067-.28.067a5.56 5.56 0 01-3.36-1.128.4.4 0 10-.48.639A6.37 6.37 0 0037.6 40.8c.198 0 .355-.115.548-.133a.4.4 0 00.611-.147c.89-.173 1.688-.475 2.405-.976a.399.399 0 00.498-.42c.349-.301.772-.516 1.049-.884a.4.4 0 10-.64-.48c-.232.31-.59.488-.88.743l-1.543-1.606c.124-.1.247-.2.35-.316.547-.615.802-1.403.802-2.181 0-.458-.099-.915-.283-1.342l1.724-1.657c.502.778.876 1.646.94 2.625a.4.4 0 00.799-.053c-.08-1.214-.559-2.294-1.222-3.23a.4.4 0 00-.235-.373c-.613-.75-1.399-1.315-2.29-1.725a.4.4 0 00-.467-.178c-.298-.11-.569-.275-.886-.339a.402.402 0 00-.08-.008zm1.33 1.33c.632.324 1.212.73 1.676 1.26l-1.71 1.643c-.035-.044-.06-.092-.097-.134a2.872 2.872 0 00-.537-.46l.668-2.31zm-7.805 3.16l2.266.656c-.095.269-.142.549-.166.83l-2.356.584c-.006-.1-.069-.179-.069-.28 0-.632.132-1.225.325-1.79zm5.275.19c.6 0 .948.196 1.202.481.253.285.398.697.398 1.119 0 .422-.145.834-.398 1.119-.254.285-.602.48-1.202.48s-.948-.195-1.202-.48c-.253-.285-.398-.697-.398-1.12 0-.421.145-.833.398-1.118.254-.285.602-.481 1.202-.481zm1.352 4.527l1.626 1.692c-.578.376-1.22.584-1.92.726l-.542-2.198c.296-.044.58-.11.836-.22zM37.2 60a.398.398 0 00-.375.554.403.403 0 00.375.246h1.6a.4.4 0 100-.8h-1.6z"></path></svg>