<svg xmlns="http://www.w3.org/2000/svg" width="80" height="80" fill="none" viewBox="0 0 80 80"><path fill="#C4C4C4" d="M19.2 9.6c-3.525 0-6.4 2.875-6.4 6.4v36.8c0 3.525 2.875 6.4 6.4 6.4h9.6V64c0 3.525 2.875 6.4 6.4 6.4h25.6c3.525 0 6.4-2.875 6.4-6.4V34a.4.4 0 00-.117-.283l-12.8-12.8A.4.4 0 0054 20.8h-4.634L38.283 9.717A.4.4 0 0038 9.6H19.2zm19.2 1.366l9.834 9.834h-8.348a5.124 5.124 0 01-1.486-3.6v-6.234zm-19.2.234h18.4v6c0 1.354.458 2.597 1.216 3.6H35.2c-3.525 0-6.4 2.875-6.4 6.4h-8.4a.398.398 0 00-.375.555.403.403 0 00.375.245h8.4v3.2h-8.4a.398.398 0 00-.375.555.403.403 0 00.375.245h8.4v3.2h-8.4a.398.398 0 00-.375.554.403.403 0 00.375.246h8.4v3.2h-8.4a.398.398 0 00-.375.554.403.403 0 00.375.246h8.4v3.2h-8.4a.398.398 0 00-.375.554.403.403 0 00.375.246h8.4v3.2h-8.4a.398.398 0 00-.375.554.403.403 0 00.375.246h8.4v6.4h-7.6a3.595 3.595 0 01-3.6-3.6V18c0-1.992 1.607-3.6 3.6-3.6a.4.4 0 100-.8 4.406 4.406 0 00-4.4 4.4v32.8c0 2.425 1.975 4.4 4.4 4.4h7.6v2.4h-9.6c-2.66 0-4.8-2.14-4.8-4.8V16c0-2.66 2.14-4.8 4.8-4.8zm35.2 10.966L65.834 33.6H59.6a5.194 5.194 0 01-5.2-5.2v-6.234zm-19.2.234h18.4v6c0 3.31 2.691 6 6 6h6V64c0 2.66-2.14 4.8-4.8 4.8H35.2c-2.66 0-4.8-2.14-4.8-4.8V27.2c0-2.66 2.14-4.8 4.8-4.8zm2 2.4a4.406 4.406 0 00-4.4 4.4V62c0 2.425 1.975 4.4 4.4 4.4h21.6c2.425 0 4.4-1.975 4.4-4.4V51.6a.398.398 0 00-.554-.375.399.399 0 00-.246.375V62c0 1.993-1.607 3.6-3.6 3.6H37.2a3.595 3.595 0 01-3.6-3.6V29.2c0-1.992 1.608-3.6 3.6-3.6a.4.4 0 100-.8zM50 37.6a.4.4 0 00-.4.4v8.8a.4.4 0 10.8 0v-8.4h8.8v8.8h-6a.398.398 0 00-.375.554.403.403 0 00.375.246h6.4a.4.4 0 00.4-.4V38a.4.4 0 00-.4-.4H50zm-13.6.8a.398.398 0 00-.375.555.403.403 0 00.375.245h10.4a.4.4 0 100-.8H36.4zm26.394 3.994a.4.4 0 00-.394.406v1.6a.4.4 0 10.8 0v-1.6a.4.4 0 00-.406-.406zM36.4 42.4a.398.398 0 00-.375.555.403.403 0 00.375.245h10.4a.4.4 0 100-.8H36.4zm26.394 3.194A.4.4 0 0062.4 46v4a.4.4 0 10.8 0v-4a.4.4 0 00-.406-.406zM36.4 46.4a.398.398 0 00-.375.555.403.403 0 00.375.245h10.4a.4.4 0 100-.8H36.4zm0 4a.398.398 0 00-.375.555.403.403 0 00.375.245h6.4a.4.4 0 100-.8h-6.4zm8.8 0a.398.398 0 00-.375.555.403.403 0 00.375.245h14.4a.4.4 0 100-.8H45.2zm-8.8 4a.398.398 0 00-.375.555.403.403 0 00.375.245h8.8a.4.4 0 100-.8h-8.8zm11.2 0a.398.398 0 00-.375.555.403.403 0 00.375.245h5.6a.4.4 0 100-.8h-5.6zm8 0a.398.398 0 00-.375.555.403.403 0 00.375.245h4a.4.4 0 100-.8h-4zm-19.2 4a.398.398 0 00-.375.555.403.403 0 00.375.245h12.8a.4.4 0 100-.8H36.4zm15.2 0a.398.398 0 00-.375.555.403.403 0 00.375.245h8a.4.4 0 100-.8h-8z"></path><path fill="#fff" d="M19.2 9.6c-3.525 0-6.4 2.875-6.4 6.4v36.8c0 3.525 2.875 6.4 6.4 6.4h9.6V64c0 3.525 2.875 6.4 6.4 6.4h25.6c3.525 0 6.4-2.875 6.4-6.4V34a.4.4 0 00-.117-.283l-12.8-12.8A.4.4 0 0054 20.8h-4.634L38.283 9.717A.4.4 0 0038 9.6H19.2zm19.2 1.366l9.834 9.834h-8.348a5.124 5.124 0 01-1.486-3.6v-6.234zm-19.2.234h18.4v6c0 1.354.458 2.597 1.216 3.6H35.2c-3.525 0-6.4 2.875-6.4 6.4h-8.4a.398.398 0 00-.375.555.403.403 0 00.375.245h8.4v3.2h-8.4a.398.398 0 00-.375.555.403.403 0 00.375.245h8.4v3.2h-8.4a.398.398 0 00-.375.554.403.403 0 00.375.246h8.4v3.2h-8.4a.398.398 0 00-.375.554.403.403 0 00.375.246h8.4v3.2h-8.4a.398.398 0 00-.375.554.403.403 0 00.375.246h8.4v3.2h-8.4a.398.398 0 00-.375.554.403.403 0 00.375.246h8.4v6.4h-7.6a3.595 3.595 0 01-3.6-3.6V18c0-1.992 1.607-3.6 3.6-3.6a.4.4 0 100-.8 4.406 4.406 0 00-4.4 4.4v32.8c0 2.425 1.975 4.4 4.4 4.4h7.6v2.4h-9.6c-2.66 0-4.8-2.14-4.8-4.8V16c0-2.66 2.14-4.8 4.8-4.8zm35.2 10.966L65.834 33.6H59.6a5.194 5.194 0 01-5.2-5.2v-6.234zm-19.2.234h18.4v6c0 3.31 2.691 6 6 6h6V64c0 2.66-2.14 4.8-4.8 4.8H35.2c-2.66 0-4.8-2.14-4.8-4.8V27.2c0-2.66 2.14-4.8 4.8-4.8zm2 2.4a4.406 4.406 0 00-4.4 4.4V62c0 2.425 1.975 4.4 4.4 4.4h21.6c2.425 0 4.4-1.975 4.4-4.4V51.6a.398.398 0 00-.554-.375.399.399 0 00-.246.375V62c0 1.993-1.607 3.6-3.6 3.6H37.2a3.595 3.595 0 01-3.6-3.6V29.2c0-1.992 1.608-3.6 3.6-3.6a.4.4 0 100-.8zM50 37.6a.4.4 0 00-.4.4v8.8a.4.4 0 10.8 0v-8.4h8.8v8.8h-6a.398.398 0 00-.375.554.403.403 0 00.375.246h6.4a.4.4 0 00.4-.4V38a.4.4 0 00-.4-.4H50zm-13.6.8a.398.398 0 00-.375.555.403.403 0 00.375.245h10.4a.4.4 0 100-.8H36.4zm26.394 3.994a.4.4 0 00-.394.406v1.6a.4.4 0 10.8 0v-1.6a.4.4 0 00-.406-.406zM36.4 42.4a.398.398 0 00-.375.555.403.403 0 00.375.245h10.4a.4.4 0 100-.8H36.4zm26.394 3.194A.4.4 0 0062.4 46v4a.4.4 0 10.8 0v-4a.4.4 0 00-.406-.406zM36.4 46.4a.398.398 0 00-.375.555.403.403 0 00.375.245h10.4a.4.4 0 100-.8H36.4zm0 4a.398.398 0 00-.375.555.403.403 0 00.375.245h6.4a.4.4 0 100-.8h-6.4zm8.8 0a.398.398 0 00-.375.555.403.403 0 00.375.245h14.4a.4.4 0 100-.8H45.2zm-8.8 4a.398.398 0 00-.375.555.403.403 0 00.375.245h8.8a.4.4 0 100-.8h-8.8zm11.2 0a.398.398 0 00-.375.555.403.403 0 00.375.245h5.6a.4.4 0 100-.8h-5.6zm8 0a.398.398 0 00-.375.555.403.403 0 00.375.245h4a.4.4 0 100-.8h-4zm-19.2 4a.398.398 0 00-.375.555.403.403 0 00.375.245h12.8a.4.4 0 100-.8H36.4zm15.2 0a.398.398 0 00-.375.555.403.403 0 00.375.245h8a.4.4 0 100-.8h-8z"></path></svg>