<?xml version="1.0" encoding="utf-8"?>
<!-- Generator: Adobe Illustrator 25.4.1, SVG Export Plug-In . SVG Version: 6.00 Build 0)  -->
<svg version="1.1" id="Calque_1" xmlns="http://www.w3.org/2000/svg" xmlns:xlink="http://www.w3.org/1999/xlink" x="0px" y="0px"
	 viewBox="0 0 29 21" style="enable-background:new 0 0 29 21;" xml:space="preserve">
<style type="text/css">
	.st0{fill:#11AEFD;}
</style>
<path class="st0" d="M24.5,1.7c-1.8-0.8-3.8-1.4-5.9-1.7c0,0-0.1,0-0.1,0c-0.3,0.4-0.5,1-0.7,1.4c-2.2-0.3-4.4-0.3-6.6,0
	C11,1,10.7,0.5,10.4,0c0,0-0.1,0-0.1,0C8.3,0.3,6.3,0.9,4.4,1.7c0,0,0,0,0,0C0.6,7.1-0.4,12.3,0.1,17.5c0,0,0,0,0,0.1
	C2.6,19.2,5,20.3,7.4,21c0,0,0.1,0,0.1,0c0.6-0.7,1.1-1.5,1.5-2.3c0,0,0-0.1-0.1-0.1c-0.8-0.3-1.5-0.6-2.3-1c-0.1,0-0.1-0.1,0-0.1
	C6.8,17.3,7,17.2,7.1,17c0,0,0.1,0,0.1,0c4.7,2.1,9.9,2.1,14.6,0c0,0,0.1,0,0.1,0c0.1,0.1,0.3,0.2,0.5,0.3c0.1,0,0,0.1,0,0.1
	c-0.7,0.4-1.5,0.7-2.3,1c-0.1,0-0.1,0.1,0,0.1c0.4,0.8,0.9,1.6,1.5,2.3c0,0,0.1,0,0.1,0c2.4-0.7,4.8-1.7,7.3-3.5c0,0,0,0,0-0.1
	C29.5,11.5,27.9,6.3,24.5,1.7C24.6,1.8,24.6,1.7,24.5,1.7z M9.7,14.3c-1.4,0-2.6-1.2-2.6-2.8c0-1.5,1.2-2.8,2.6-2.8
	c1.5,0,2.6,1.3,2.6,2.8C12.3,13.1,11.1,14.3,9.7,14.3z M19.3,14.3c-1.4,0-2.6-1.2-2.6-2.8c0-1.5,1.2-2.8,2.6-2.8
	c1.5,0,2.6,1.3,2.6,2.8C21.9,13.1,20.8,14.3,19.3,14.3z"/>
</svg>
