<?xml version="1.0" encoding="utf-8"?>
<!-- Generator: Adobe Illustrator 25.4.1, SVG Export Plug-In . SVG Version: 6.00 Build 0)  -->
<svg version="1.1" id="Calque_1" xmlns="http://www.w3.org/2000/svg" xmlns:xlink="http://www.w3.org/1999/xlink" x="0px" y="0px"
	 viewBox="0 0 16 16" style="enable-background:new 0 0 16 16;" xml:space="preserve">
<style type="text/css">
	.st0{fill-rule:evenodd;clip-rule:evenodd;fill:#11AEFD;}
</style>
<path class="st0" d="M5.8,1c0-0.5,0.4-1,1-1c3.5,0,6.4,2.9,6.4,6.4c0,0.5-0.4,1-1,1s-1-0.4-1-1c0-2.5-2-4.5-4.5-4.5
	C6.2,1.9,5.8,1.5,5.8,1z"/>
<path class="st0" d="M10.2,15c0,0.5-0.4,1-1,1c-3.5,0-6.4-2.9-6.4-6.4c0-0.5,0.4-1,1-1s1,0.4,1,1c0,2.5,2,4.5,4.5,4.5
	C9.8,14.1,10.2,14.5,10.2,15z"/>
<path class="st0" d="M1,10.2c-0.5,0-1-0.4-1-1c0-3.5,2.9-6.4,6.4-6.4c0.5,0,1,0.4,1,1s-0.4,1-1,1c-2.5,0-4.5,2-4.5,4.5
	C1.9,9.8,1.5,10.2,1,10.2z"/>
<path class="st0" d="M15,5.8c0.5,0,1,0.4,1,1c0,3.5-2.9,6.4-6.4,6.4c-0.5,0-1-0.4-1-1s0.4-1,1-1c2.5,0,4.5-2,4.5-4.5
	C14.1,6.2,14.5,5.8,15,5.8z"/>
</svg>
