<?xml version="1.0" encoding="utf-8"?>
<!-- Generator: Adobe Illustrator 25.4.1, SVG Export Plug-In . SVG Version: 6.00 Build 0)  -->
<svg version="1.1" id="Calque_1" xmlns="http://www.w3.org/2000/svg" xmlns:xlink="http://www.w3.org/1999/xlink" x="0px" y="0px"
	 viewBox="0 0 24 25" style="enable-background:new 0 0 24 25;" xml:space="preserve">
<style type="text/css">
	.st0{clip-path:url(#SVGID_00000067226651563265969820000014751044208622018238_);}
	.st1{fill:#11AEFD;}
	.st2{fill:#FFFFFF;}
</style>
<g>
	<defs>
		<rect id="SVGID_1_" y="0" width="24" height="25"/>
	</defs>
	<clipPath id="SVGID_00000116956876101755641230000001433026736174885263_">
		<use xlink:href="#SVGID_1_"  style="overflow:visible;"/>
	</clipPath>
	<g style="clip-path:url(#SVGID_00000116956876101755641230000001433026736174885263_);">
		<path class="st1" d="M23.5,15c-0.4,1.8-3.2,3.7-6.4,4.1c-1.7,0.2-3.3,0.4-5.1,0.3c-2.9-0.1-5.2-0.7-5.2-0.7c0,0.3,0,0.5,0.1,0.8
			c0.4,2.8,2.8,2.9,5.1,3c2.3,0.1,4.4-0.6,4.4-0.6l0.1,2.1c0,0-1.6,0.9-4.6,1c-1.6,0.1-3.6,0-5.9-0.6C1,23,0.2,17.8,0,12.5
			c0-1.6,0-3.1,0-4.3c0-5.4,3.7-7,3.7-7C5.5,0.4,8.7,0,12,0H12c3.3,0,6.5,0.4,8.3,1.2c0,0,3.7,1.6,3.7,7C24,8.2,24,12.2,23.5,15z"/>
		<path class="st2" d="M19.7,8.6v6.6H17V8.8c0-1.3-0.6-2-1.7-2c-1.3,0-1.9,0.8-1.9,2.4v3.5h-2.7V9.2c0-1.6-0.6-2.4-1.9-2.4
			C7.6,6.8,7,7.5,7,8.8v6.4H4.3V8.6c0-1.3,0.4-2.4,1.1-3.2c0.7-0.8,1.7-1.2,2.9-1.2c1.4,0,2.4,0.5,3.1,1.5L12,6.9l0.7-1.1
			c0.7-1,1.7-1.5,3.1-1.5c1.2,0,2.1,0.4,2.9,1.2C19.3,6.2,19.7,7.3,19.7,8.6z"/>
	</g>
</g>
</svg>
