<?xml version="1.0" encoding="utf-8"?>
<!-- Generator: Adobe Illustrator 25.4.1, SVG Export Plug-In . SVG Version: 6.00 Build 0)  -->
<svg version="1.1" id="Calque_1" xmlns="http://www.w3.org/2000/svg" xmlns:xlink="http://www.w3.org/1999/xlink" x="0px" y="0px"
	 viewBox="0 0 28 23" style="enable-background:new 0 0 28 23;" xml:space="preserve">
<style type="text/css">
	.st0{fill:#11AEFD;}
</style>
<path class="st0" d="M27.6,2.6c-1,0.4-2.1,0.7-3.3,0.9c1.2-0.7,2.1-1.8,2.5-3.1c-1.1,0.7-2.3,1.1-3.6,1.4c-1-1.1-2.5-1.8-4.1-1.8
	c-3.1,0-5.6,2.5-5.6,5.6c0,0.4,0,0.9,0.1,1.3C8.9,6.7,4.8,4.5,2,1C1.5,1.9,1.2,2.8,1.2,3.9c0,2,1,3.7,2.5,4.7
	c-0.9,0-1.8-0.3-2.6-0.7c0,0,0,0,0,0.1c0,2.7,2,5,4.5,5.5c-0.5,0.1-1,0.2-1.5,0.2c-0.4,0-0.7,0-1.1-0.1c0.7,2.2,2.8,3.9,5.3,3.9
	c-1.9,1.5-4.4,2.4-7,2.4c-0.5,0-0.9,0-1.4-0.1c2.5,1.6,5.5,2.5,8.7,2.5c10.4,0,16.1-8.6,16.1-16.1c0-0.2,0-0.5,0-0.7
	C25.9,4.8,26.8,3.8,27.6,2.6z"/>
</svg>
